<?xml version="1.0" encoding="UTF-8"?>
<svg width="134px" height="134px" viewBox="0 0 134 134" version="1.1" xmlns="http://www.w3.org/2000/svg" xmlns:xlink="http://www.w3.org/1999/xlink">
    <title>313545DA-2B56-47B8-9E70-7DB2F2842FA3@1.5x</title>
    <defs>
        <filter x="-5.3%" y="-5.2%" width="110.5%" height="110.3%" filterUnits="objectBoundingBox" id="filter-1">
            <feOffset dx="1" dy="2" in="SourceAlpha" result="shadowOffsetOuter1"></feOffset>
            <feGaussianBlur stdDeviation="3" in="shadowOffsetOuter1" result="shadowBlurOuter1"></feGaussianBlur>
            <feColorMatrix values="0 0 0 0 0   0 0 0 0 0   0 0 0 0 0  0 0 0 0.15 0" type="matrix" in="shadowBlurOuter1" result="shadowMatrixOuter1"></feColorMatrix>
            <feMerge>
                <feMergeNode in="shadowMatrixOuter1"></feMergeNode>
                <feMergeNode in="SourceGraphic"></feMergeNode>
            </feMerge>
        </filter>
    </defs>
    <g id="🟢-BPI" stroke="none" stroke-width="1" fill="none" fill-rule="evenodd">
        <g id="BPI/Mobile/ErrorGenerico" transform="translate(-121.000000, -191.000000)">
            <g id="modal" filter="url(#filter-1)" transform="translate(36.000000, 179.000000)">
                <g id="llustraciones-Circulares/Genérico/Alerta" transform="translate(97.000000, 24.000000)">
                    <circle id="Oval" fill="#83C3EB" fill-rule="nonzero" cx="55" cy="55" r="55"></circle>
                    <circle id="Oval" cx="55" cy="55" r="55"></circle>
                    <path d="M52.2901042,34.9994792 C52.8486645,34.0307939 53.8818137,33.433926 55,33.433926 C56.1181863,33.433926 57.1513355,34.0307939 57.7098958,34.9994792 L68.4119792,53.5390625 L79.1140625,72.0729167 C79.6758643,73.0412457 79.6773625,74.2359798 79.117991,75.2057147 C78.5586195,76.1754497 77.5236666,76.7723284 76.4041667,76.7708361 L33.5958333,76.7708361 C32.4763334,76.7723284 31.4413805,76.1754497 30.882009,75.2057147 C30.3226375,74.2359798 30.3241357,73.0412457 30.8859375,72.0729167 L41.5880208,53.5390625 L52.2901042,34.9994792 Z" id="Path" fill="#FFFFFF" fill-rule="nonzero"></path>
                    <path d="M55,33.3322425 C56.1194725,33.3259992 57.1553417,33.9238687 57.7098958,34.8963542 L68.4119792,53.4359375 L79.1140625,71.9697917 C79.6758643,72.9381207 79.6773625,74.1328548 79.117991,75.1025897 C78.5586195,76.0723247 77.5236666,76.6692034 76.4041667,76.6677111 L33.5958333,76.6677111 C32.4763334,76.6692034 31.4413805,76.0723247 30.882009,75.1025897 C30.3226375,74.1328548 30.3241357,72.9381207 30.8859375,71.9697917 L41.5880208,53.4359375 L52.2901042,34.8963542 C52.8446583,33.9238687 53.8805275,33.3259992 55,33.3322425 M55,30.4676292 C52.8558623,30.4566655 50.8721251,31.601803 49.809375,33.4640625 L39.1072917,52.0036458 L28.4052083,70.5375 C27.3355277,72.3926002 27.3359168,74.6772481 28.4062293,76.5319838 C29.4765417,78.3867196 31.4544298,79.530212 33.5958333,79.5322917 L76.4041667,79.5322917 C78.5455702,79.530212 80.5234583,78.3867196 81.5937707,76.5319838 C82.6640832,74.6772481 82.6644723,72.3926002 81.5947917,70.5375 L70.8927083,52.0036458 L60.190625,33.4640625 C59.1278749,31.601803 57.1441377,30.4566655 55,30.4676292 Z" id="Shape" fill="#0039A6" fill-rule="nonzero"></path>
                    <path d="M53.1609375,60.4885417 L51.4421875,46.8359375 C50.9895833,44.4526042 52.2671875,43.0489583 54.4270833,43.0489583 L55.5328125,43.0489583 C57.784375,43.0489583 59.0619792,44.4526042 58.5520833,46.8359375 L56.8333333,60.4885417 C56.5755208,61.7661458 56.1973958,62.4078125 55.3036458,62.4078125 L54.6505208,62.4078125 C53.8541667,62.4078125 53.4588542,61.7661458 53.1609375,60.4885417 Z M51.7572917,68.4463542 L51.7572917,67.8734375 C51.7572917,66 52.7369792,65.0088542 54.621875,65.0088542 L55.34375,65.0088542 C57.303125,65.0088542 58.2083333,65.9828125 58.2083333,67.8734375 L58.2083333,68.4463542 C58.2083333,70.3197917 57.2744792,71.3109375 55.34375,71.3109375 L54.6104167,71.3109375 C52.7369792,71.2994792 51.7572917,70.3197917 51.7572917,68.4463542 Z" id="Shape" fill="#05BE50" fill-rule="nonzero"></path>
                </g>
            </g>
        </g>
    </g>
</svg>